<?xml version="1.0" encoding="utf-8"?>
<!-- Generator: Adobe Illustrator 25.2.1, SVG Export Plug-In . SVG Version: 6.00 Build 0)  -->
<svg version="1.1" id="Слой_1" xmlns="http://www.w3.org/2000/svg" xmlns:xlink="http://www.w3.org/1999/xlink" x="0px" y="0px"
	 viewBox="0 0 127 18" style="enable-background:new 0 0 127 18;" xml:space="preserve">
<style type="text/css">
	.st0{fill:#333333;}
</style>
<g>
	<path class="st0" d="M22.5,1.5c-1.1-0.9-2.5-1.3-4.1-1.3c-1.1,0-2.3,0.1-3.4,0.2h-1v17.3h3v-6.4h0.1c1.9,0,3.5-0.5,4.9-1.6l0,0
		c1.4-1.1,2.2-2.5,2.2-4.3C24.2,3.8,23.6,2.4,22.5,1.5z M20,7.7c-0.8,0.6-1.8,0.9-3,0.9V3.1c0.4,0,0.8,0,1.2,0c1,0,1.8,0.2,2.2,0.6
		l0,0c0.4,0.3,0.7,0.8,0.7,1.8C21.1,6.4,20.7,7.1,20,7.7z"/>
	<path class="st0" d="M75.9,0.2l-7.1,17.6H72l2.1-5.4h5.3l2.1,5.4h3.3l-7-17.6C77.8,0.2,75.9,0.2,75.9,0.2z M75.3,9.5l1.5-3.8
		l1.5,3.8H75.3z"/>
	<path class="st0" d="M4.3,3.3C4.6,3.1,5.1,3,6,3c0.8,0,1.7,0.2,2.6,0.6L9.5,4l1.1-2.7L9.8,0.9C8.6,0.3,7.3,0,5.9,0S3.2,0.3,2.3,1.1
		C1.3,1.9,0.8,3,0.8,4.3c0,1,0.3,1.9,0.9,2.7c0.5,0.8,1.2,1.4,1.9,2c0.7,0.5,1.3,1,2,1.5l0,0l0,0c0.6,0.4,1.1,0.9,1.5,1.4l0,0
		c0.3,0.4,0.5,0.8,0.5,1.2c0,0.7-0.2,1.1-0.6,1.4C6.5,14.8,5.9,15,4.8,15c-1,0-1.9-0.3-2.7-0.8l-0.9-0.6L-0.4,16l0.7,0.6
		C1.6,17.5,3.1,18,4.8,18c1.6,0,3.1-0.4,4.1-1.2l0,0c1.1-0.9,1.6-2.2,1.6-3.8c0-1-0.3-1.9-0.9-2.7c-0.5-0.8-1.2-1.4-1.9-2
		C7,7.8,6.4,7.4,5.7,6.9C5.3,6.5,4.8,6.1,4.4,5.6C4.1,5.1,3.9,4.7,3.9,4.3C3.9,3.7,4.1,3.5,4.3,3.3z"/>
	<path class="st0" d="M119.6,0.2h-1.9l-7.1,17.6h3.2l2.1-5.4h5.3l2.1,5.4h3.3L119.6,0.2z M117.1,9.5l1.5-3.8l1.5,3.8H117.1z"/>
	<path class="st0" d="M57.3,14c-0.2-0.2-0.7-0.8-1.4-1.8c-0.5-0.7-1-1.3-1.4-1.9c0.5-0.4,0.9-1,1.3-1.6c0.6-1,1-2,1-3.2
		c0-1.6-0.6-3-1.7-4C54,0.6,52.6,0.1,51,0.1c-0.9,0-2.1,0.1-3.4,0.2l-0.9,0.1v17.3h3v-6.3c0.7,0,1.4,0.1,2.2,0.1
		c1.7,2.4,2.8,4,3.3,4.5l0,0l0,0c0.6,0.6,1.2,1.1,1.8,1.4l0,0l0,0c0.7,0.3,1.5,0.5,2.5,0.5h1l0.1-2.6l-0.9-0.1
		C58.7,15.1,58,14.7,57.3,14z M51.6,8.6c-0.7,0-1.4,0-2.1-0.1V3.1c0.4,0,0.8,0,1.2,0c1,0,1.7,0.2,2.2,0.6l0,0l0,0
		c0.4,0.3,0.7,0.8,0.7,1.7S53.3,7,52.8,7.7C52.2,8.5,51.8,8.6,51.6,8.6z M49.6,2.1L49.6,2.1C49.7,2.1,49.6,2.1,49.6,2.1z M53.1,10.1
		L53.1,10.1L53.1,10.1L53.1,10.1z M54,11.3L54,11.3L54,11.3z"/>
	<path class="st0" d="M97.3,14c-0.2-0.2-0.7-0.8-1.4-1.8c-0.5-0.7-1-1.3-1.4-1.9c0.5-0.4,0.9-1,1.3-1.6c0.6-1,1-2,1-3.2
		c0-1.6-0.5-3-1.7-4C94,0.6,92.6,0.1,91,0.1c-0.9,0-2.1,0.1-3.4,0.2l-0.9,0.1v17.3h3v-6.3c0.7,0,1.4,0.1,2.2,0.1
		c1.7,2.4,2.8,4,3.3,4.5l0,0l0,0c0.6,0.6,1.2,1.1,1.8,1.4l0,0l0,0c0.7,0.3,1.5,0.5,2.5,0.5h1l0.1-2.6l-0.9-0.1
		C98.7,15.1,98,14.7,97.3,14z M91.7,8.6c-0.7,0-1.4,0-2.1-0.1V3.1c0.4,0,0.8,0,1.2,0c1,0,1.7,0.2,2.2,0.6l0,0l0,0
		c0.4,0.3,0.7,0.8,0.7,1.7S93.4,7,92.9,7.7C92.2,8.5,91.8,8.6,91.7,8.6z M92.6,9.3L92.6,9.3L92.6,9.3z M93.2,10.1L93.2,10.1
		L93.2,10.1L93.2,10.1z"/>
	<polygon class="st0" points="104.3,9.8 109.6,9.8 109.6,6.9 104.3,6.9 104.3,3.2 110.2,3.2 110.2,0.3 101.3,0.3 101.3,17.7 
		110.4,17.7 110.4,14.8 104.3,14.8 	"/>
	<path class="st0" d="M34.5,0c-2.4,0-4.4,0.9-6,2.6C27,4.4,26.2,6.5,26.2,9s0.8,4.6,2.3,6.4l0,0c1.6,1.8,3.6,2.6,6,2.6
		s4.4-0.9,6-2.6s2.3-3.9,2.3-6.4S42,4.4,40.5,2.7C38.9,0.9,36.9,0,34.5,0z M39.8,9c0,1.8-0.5,3.2-1.5,4.4l0,0
		c-1,1.1-2.2,1.7-3.7,1.7s-2.8-0.6-3.7-1.7c-1-1.2-1.5-2.6-1.5-4.4s0.5-3.2,1.5-4.4l0,0C31.8,3.5,33,3,34.5,3s2.8,0.6,3.7,1.7l0,0
		C39.3,5.8,39.8,7.2,39.8,9z"/>
	<polygon class="st0" points="71.1,0.3 58,0.3 58,3.2 63,3.2 63,17.7 66,17.7 66,3.2 71.1,3.2 	"/>
</g>
</svg>
